{
    "asset" : {
        "generator" : "Khronos Blender glTF 2.0 I/O",
        "version" : "2.0"
    },
    "scene" : 0,
    "scenes" : [
        {
            "name" : "Scene",
            "nodes" : [
                0,
                1
            ]
        }
    ],
    "nodes" : [
        {
            "mesh" : 0,
            "name" : "Cube",
            "translation" : [
                -0.0007719391142018139,
                0.00072723429184407,
                0.19292990863323212
            ]
        },
        {
            "name" : "Cube.001",
            "rotation" : [
                0.7071068286895752,
                0,
                0,
                0.7071067094802856
            ]
        }
    ],
    "materials" : [
        {
            "name" : "Base",
            "pbrMetallicRoughness" : {
                "baseColorFactor" : [
                    0.026239797472953796,
                    0.026239797472953796,
                    0.026239797472953796,
                    1
                ],
                "metallicFactor" : 0,
                "roughnessFactor" : 0.45505619049072266
            }
        }
    ],
    "meshes" : [
        {
            "name" : "Cube.002",
            "primitives" : [
                {
                    "attributes" : {
                        "POSITION" : 0,
                        "NORMAL" : 1,
                        "TEXCOORD_0" : 2
                    },
                    "indices" : 3,
                    "material" : 0
                }
            ]
        }
    ],
    "accessors" : [
        {
            "bufferView" : 0,
            "componentType" : 5126,
            "count" : 2727,
            "max" : [
                0.9851470589637756,
                0.2815602421760559,
                0.7779034972190857
            ],
            "min" : [
                -0.983603298664093,
                -0.28286710381507874,
                -1.1056824922561646
            ],
            "type" : "VEC3"
        },
        {
            "bufferView" : 1,
            "componentType" : 5126,
            "count" : 2727,
            "type" : "VEC3"
        },
        {
            "bufferView" : 2,
            "componentType" : 5126,
            "count" : 2727,
            "type" : "VEC2"
        },
        {
            "bufferView" : 3,
            "componentType" : 5123,
            "count" : 14592,
            "type" : "SCALAR"
        }
    ],
    "bufferViews" : [
        {
            "buffer" : 0,
            "byteLength" : 32724,
            "byteOffset" : 0
        },
        {
            "buffer" : 0,
            "byteLength" : 32724,
            "byteOffset" : 32724
        },
        {
            "buffer" : 0,
            "byteLength" : 21816,
            "byteOffset" : 65448
        },
        {
            "buffer" : 0,
            "byteLength" : 29184,
            "byteOffset" : 87264
        }
    ],
    "buffers" : [
        {
            "byteLength" : 116448,
            "uri" : "data:application/octet-stream;base64,"
        }
    ]
}
